<svg xmlns="http://www.w3.org/2000/svg" width="752" height="80">
    <svg id="icon-bi_grid" width="32" height="32" x="0" y="0" viewBox="0 0 32 32">
        <path
            d="M2 5a3.004 3.004 0 0 1 3-3h6a3.004 3.004 0 0 1 3 3v6a3.004 3.004 0 0 1-3 3H5a3.004 3.004 0 0 1-3-3V5zm3-1a.997.997 0 0 0-1 1v6a.997.997 0 0 0 1 1h6a.997.997 0 0 0 1-1V5a.997.997 0 0 0-1-1H5zm13 1a3.004 3.004 0 0 1 3-3h6a3.004 3.004 0 0 1 3 3v6a3.004 3.004 0 0 1-3 3h-6a3.004 3.004 0 0 1-3-3V5zm3-1a.997.997 0 0 0-1 1v6a.997.997 0 0 0 1 1h6a.997.997 0 0 0 1-1V5a.997.997 0 0 0-1-1h-6zM2 21a3.004 3.004 0 0 1 3-3h6a3.004 3.004 0 0 1 3 3v6a3.004 3.004 0 0 1-3 3H5a3.004 3.004 0 0 1-3-3v-6zm3-1a.997.997 0 0 0-1 1v6a.997.997 0 0 0 1 1h6a.997.997 0 0 0 1-1v-6a.997.997 0 0 0-1-1H5zm13 1a3.004 3.004 0 0 1 3-3h6a3.004 3.004 0 0 1 3 3v6a3.004 3.004 0 0 1-3 3h-6a3.004 3.004 0 0 1-3-3v-6zm3-1a.997.997 0 0 0-1 1v6a.997.997 0 0 0 1 1h6a.997.997 0 0 0 1-1v-6a.997.997 0 0 0-1-1h-6z" />
    </svg>
    <svg id="icon-transmission" width="32" height="32" viewBox="0 0 32 32" fill="none" xmlns="http://www.w3.org/2000/svg">
        <path  d="M12 7C12 6.20435 12.3161 5.44129 12.8787 4.87868C13.4413 4.31607 14.2044 4 15 4H17C17.7956 4 18.5587 4.31607 19.1213 4.87868C19.6839 5.44129 20 6.20435 20 7V9C20 9.79565 19.6839 10.5587 19.1213 11.1213C18.5587 11.6839 17.7956 12 17 12V14H28C28.2652 14 28.5196 14.1054 28.7071 14.2929C28.8946 14.4804 29 14.7348 29 15V17C29 17.2652 28.8946 17.5196 28.7071 17.7071C28.5196 17.8946 28.2652 18 28 18C27.7348 18 27.4804 17.8946 27.2929 17.7071C27.1054 17.5196 27 17.2652 27 17V16H17V17C17 17.2652 16.8946 17.5196 16.7071 17.7071C16.5196 17.8946 16.2652 18 16 18C15.7348 18 15.4804 17.8946 15.2929 17.7071C15.1054 17.5196 15 17.2652 15 17V16H5V17C5 17.2652 4.89464 17.5196 4.70711 17.7071C4.51957 17.8946 4.26522 18 4 18C3.73478 18 3.48043 17.8946 3.29289 17.7071C3.10536 17.5196 3 17.2652 3 17V15C3 14.7348 3.10536 14.4804 3.29289 14.2929C3.48043 14.1054 3.73478 14 4 14H15V12C14.2044 12 13.4413 11.6839 12.8787 11.1213C12.3161 10.5587 12 9.79565 12 9V7ZM17 10C17.2652 10 17.5196 9.89464 17.7071 9.70711C17.8946 9.51957 18 9.26522 18 9V7C18 6.73478 17.8946 6.48043 17.7071 6.29289C17.5196 6.10536 17.2652 6 17 6H15C14.7348 6 14.4804 6.10536 14.2929 6.29289C14.1054 6.48043 14 6.73478 14 7V9C14 9.26522 14.1054 9.51957 14.2929 9.70711C14.4804 9.89464 14.7348 10 15 10H17ZM0 23C0 22.2044 0.31607 21.4413 0.87868 20.8787C1.44129 20.3161 2.20435 20 3 20H5C5.79565 20 6.55871 20.3161 7.12132 20.8787C7.68393 21.4413 8 22.2044 8 23V25C8 25.7956 7.68393 26.5587 7.12132 27.1213C6.55871 27.6839 5.79565 28 5 28H3C2.20435 28 1.44129 27.6839 0.87868 27.1213C0.31607 26.5587 0 25.7956 0 25L0 23ZM3 22C2.73478 22 2.48043 22.1054 2.29289 22.2929C2.10536 22.4804 2 22.7348 2 23V25C2 25.2652 2.10536 25.5196 2.29289 25.7071C2.48043 25.8946 2.73478 26 3 26H5C5.26522 26 5.51957 25.8946 5.70711 25.7071C5.89464 25.5196 6 25.2652 6 25V23C6 22.7348 5.89464 22.4804 5.70711 22.2929C5.51957 22.1054 5.26522 22 5 22H3ZM12 23C12 22.2044 12.3161 21.4413 12.8787 20.8787C13.4413 20.3161 14.2044 20 15 20H17C17.7956 20 18.5587 20.3161 19.1213 20.8787C19.6839 21.4413 20 22.2044 20 23V25C20 25.7956 19.6839 26.5587 19.1213 27.1213C18.5587 27.6839 17.7956 28 17 28H15C14.2044 28 13.4413 27.6839 12.8787 27.1213C12.3161 26.5587 12 25.7956 12 25V23ZM15 22C14.7348 22 14.4804 22.1054 14.2929 22.2929C14.1054 22.4804 14 22.7348 14 23V25C14 25.2652 14.1054 25.5196 14.2929 25.7071C14.4804 25.8946 14.7348 26 15 26H17C17.2652 26 17.5196 25.8946 17.7071 25.7071C17.8946 25.5196 18 25.2652 18 25V23C18 22.7348 17.8946 22.4804 17.7071 22.2929C17.5196 22.1054 17.2652 22 17 22H15ZM24 23C24 22.2044 24.3161 21.4413 24.8787 20.8787C25.4413 20.3161 26.2044 20 27 20H29C29.7956 20 30.5587 20.3161 31.1213 20.8787C31.6839 21.4413 32 22.2044 32 23V25C32 25.7956 31.6839 26.5587 31.1213 27.1213C30.5587 27.6839 29.7956 28 29 28H27C26.2044 28 25.4413 27.6839 24.8787 27.1213C24.3161 26.5587 24 25.7956 24 25V23ZM27 22C26.7348 22 26.4804 22.1054 26.2929 22.2929C26.1054 22.4804 26 22.7348 26 23V25C26 25.2652 26.1054 25.5196 26.2929 25.7071C26.4804 25.8946 26.7348 26 27 26H29C29.2652 26 29.5196 25.8946 29.7071 25.7071C29.8946 25.5196 30 25.2652 30 25V23C30 22.7348 29.8946 22.4804 29.7071 22.2929C29.5196 22.1054 29.2652 22 29 22H27Z" fill="#101828" />
    </svg>
   
    <svg id="icon-bi_grid_1x2" width="32" height="32" x="48" y="0" viewBox="0 0 32 32">
        <path
            d="M12 2H2v28h10V2zm18 0H20v10h10V2zm0 18v10H20V20h10zM0 2a2 2 0 0 1 2-2h10a2 2 0 0 1 2 2v28a2 2 0 0 1-2 2H2a2 2 0 0 1-2-2V2zm18 0a2 2 0 0 1 2-2h10a2 2 0 0 1 2 2v10a2 2 0 0 1-2 2H20a2 2 0 0 1-2-2V2zm2 16a2 2 0 0 0-2 2v10a2 2 0 0 0 2 2h10a2 2 0 0 0 2-2V20a2 2 0 0 0-2-2H20z" />
    </svg>
    <svg id="icon-bi_grid_3x3_gap" width="32" height="32" x="96" y="0" viewBox="0 0 32 32">
        <path
            d="M8 4v4H4V4h4zm2 24v-4a2 2 0 0 0-2-2H4a2 2 0 0 0-2 2v4a2 2 0 0 0 2 2h4a2 2 0 0 0 2-2zm0-10v-4a2 2 0 0 0-2-2H4a2 2 0 0 0-2 2v4a2 2 0 0 0 2 2h4a2 2 0 0 0 2-2zm0-10V4a2 2 0 0 0-2-2H4a2 2 0 0 0-2 2v4a2 2 0 0 0 2 2h4a2 2 0 0 0 2-2zm10 20v-4a2 2 0 0 0-2-2h-4a2 2 0 0 0-2 2v4a2 2 0 0 0 2 2h4a2 2 0 0 0 2-2zm0-10v-4a2 2 0 0 0-2-2h-4a2 2 0 0 0-2 2v4a2 2 0 0 0 2 2h4a2 2 0 0 0 2-2zm0-10V4a2 2 0 0 0-2-2h-4a2 2 0 0 0-2 2v4a2 2 0 0 0 2 2h4a2 2 0 0 0 2-2zm-2-4v4h-4V4h4zm10 0v4h-4V4h4zM8 14v4H4v-4h4zm10 0v4h-4v-4h4zm10 0h-4v4h4v-4zM8 24v4H4v-4h4zm10 0v4h-4v-4h4zm10 0v4h-4v-4h4zM24 2a2 2 0 0 0-2 2v4a2 2 0 0 0 2 2h4a2 2 0 0 0 2-2V4a2 2 0 0 0-2-2h-4zm-2 12a2 2 0 0 1 2-2h4a2 2 0 0 1 2 2v4a2 2 0 0 1-2 2h-4a2 2 0 0 1-2-2v-4zm2 8a2 2 0 0 0-2 2v4a2 2 0 0 0 2 2h4a2 2 0 0 0 2-2v-4a2 2 0 0 0-2-2h-4z" />
    </svg>
    <svg id="KitchenIcon" width="32" height="32" x="144" y="0" viewBox="0 0 32 32">
        <path
            d="M1 12a1.007 1.007 0 0 0-.779.374.997.997 0 0 0-.197.842l3.304 14.868A4.998 4.998 0 0 0 8.208 32h11.584a4.996 4.996 0 0 0 4.88-3.916l.262-1.18a6 6 0 0 0 2.601-11.708l.442-1.98A1.003 1.003 0 0 0 27.001 12h-26zm25 13a4.05 4.05 0 0 1-.632-.05l1.734-7.796A4.002 4.002 0 0 1 26 25zM5.28 27.65 2.246 14h23.508L22.72 27.65A2.995 2.995 0 0 1 19.792 30H8.208a2.998 2.998 0 0 1-2.928-2.35zM8.8 1.6l-.006.008-.028.038c-.146.2-.282.407-.408.62a4.003 4.003 0 0 0-.282.534c-.052.12-.068.184-.074.206v.008c.023.177.085.346.182.496.15.266.356.544.616.89l.02.024c.236.316.52.694.74 1.086.224.4.44.91.44 1.49 0 .376-.13.736-.238.988a6.142 6.142 0 0 1-.404.776 10.2 10.2 0 0 1-.506.764l-.036.05-.01.016-.004.004a1.004 1.004 0 0 1-1.4.202A1 1 0 0 1 7.2 8.4l.006-.008.028-.038c.146-.2.282-.407.408-.62.107-.171.202-.349.282-.534.052-.12.068-.184.074-.206a1.199 1.199 0 0 0-.18-.504A8.024 8.024 0 0 0 7.2 5.6l-.02-.024c-.27-.345-.517-.708-.74-1.086A3.066 3.066 0 0 1 6 3c0-.376.13-.736.238-.988.118-.276.268-.548.404-.776.159-.261.328-.516.506-.764l.05-.07A1.004 1.004 0 0 1 8.598.2 1.004 1.004 0 0 1 8.8 1.6zm6 0-.006.008-.028.038c-.146.2-.282.407-.408.62a4.003 4.003 0 0 0-.282.534c-.052.12-.068.184-.074.206v.008c.023.177.085.346.182.496.15.266.356.544.616.89l.02.024c.236.316.52.694.74 1.086.224.4.44.91.44 1.49 0 .376-.13.736-.238.988a6.142 6.142 0 0 1-.404.776 10.2 10.2 0 0 1-.506.764l-.036.05-.01.016-.004.004a1.004 1.004 0 0 1-1.4.202 1 1 0 0 1-.202-1.4l.006-.008.028-.038c.146-.2.282-.407.408-.62.107-.171.202-.349.282-.534.052-.12.068-.184.074-.206a1.199 1.199 0 0 0-.18-.504 8.024 8.024 0 0 0-.618-.89l-.02-.024c-.27-.345-.517-.708-.74-1.086A3.066 3.066 0 0 1 12 3c0-.376.13-.736.238-.988.118-.276.268-.548.404-.776.159-.261.328-.516.506-.764l.05-.07a1.004 1.004 0 0 1 1.4-.202 1 1 0 0 1 .202 1.4zm6 0-.006.008-.028.038c-.145.2-.282.407-.408.62a4.003 4.003 0 0 0-.282.534c-.052.12-.068.184-.074.206v.008c.023.177.085.346.182.496.15.266.356.544.616.89l.02.024c.236.316.52.694.74 1.086.224.4.44.91.44 1.49 0 .376-.13.736-.238.988a6.142 6.142 0 0 1-.404.776 9.875 9.875 0 0 1-.504.764l-.038.05-.01.016-.004.004a1.004 1.004 0 0 1-1.4.202 1 1 0 0 1-.202-1.4l.006-.008.028-.038c.145-.2.282-.407.408-.62.107-.171.202-.349.282-.534.052-.12.068-.184.074-.206a1.199 1.199 0 0 0-.18-.504 8.024 8.024 0 0 0-.618-.89l-.02-.024c-.27-.345-.517-.708-.74-1.086A3.066 3.066 0 0 1 18 3c0-.376.13-.736.238-.988.118-.276.268-.548.404-.776.159-.261.328-.516.506-.764l.05-.07a1.004 1.004 0 0 1 1.4-.202 1 1 0 0 1 .202 1.4z" />
    </svg>
    <svg id="icon-diagram" width="32" height="32" x="192" y="0" viewBox="0 0 32 32">
        <path
            d="M12 7a3.004 3.004 0 0 1 3-3h2a3.004 3.004 0 0 1 3 3v2a3.004 3.004 0 0 1-3 3v2h11a.997.997 0 0 1 1 1v2a.997.997 0 0 1-1 1 .997.997 0 0 1-1-1v-1H17v1a.997.997 0 0 1-1 1 .997.997 0 0 1-1-1v-1H5v1a.997.997 0 0 1-1 1 .997.997 0 0 1-1-1v-2a.997.997 0 0 1 1-1h11v-2a3.004 3.004 0 0 1-3-3V7zm5 3a.997.997 0 0 0 1-1V7a.997.997 0 0 0-1-1h-2a.997.997 0 0 0-1 1v2a.997.997 0 0 0 1 1h2zM0 23a3.004 3.004 0 0 1 3-3h2a3.004 3.004 0 0 1 3 3v2a3.004 3.004 0 0 1-3 3H3a3.004 3.004 0 0 1-3-3v-2zm3-1a.997.997 0 0 0-1 1v2a.997.997 0 0 0 1 1h2a.997.997 0 0 0 1-1v-2a.997.997 0 0 0-1-1H3zm9 1a3.004 3.004 0 0 1 3-3h2a3.004 3.004 0 0 1 3 3v2a3.004 3.004 0 0 1-3 3h-2a3.004 3.004 0 0 1-3-3v-2zm3-1a.997.997 0 0 0-1 1v2a.997.997 0 0 0 1 1h2a.997.997 0 0 0 1-1v-2a.997.997 0 0 0-1-1h-2zm9 1a3.004 3.004 0 0 1 3-3h2a3.004 3.004 0 0 1 3 3v2a3.004 3.004 0 0 1-3 3h-2a3.004 3.004 0 0 1-3-3v-2zm3-1a.997.997 0 0 0-1 1v2a.997.997 0 0 0 1 1h2a.997.997 0 0 0 1-1v-2a.997.997 0 0 0-1-1h-2z" />
    </svg>
    <svg id="EngineIcon" width="32" height="32" x="240" y="0" viewBox="0 0 32 32">
        <path
            d="M6 5a.997.997 0 0 1 1-1h10a.997.997 0 0 1 1 1v10a.997.997 0 0 1-1 1H7a.997.997 0 0 1-1-1V5z" />
        <path
            d="M2 4a4.003 4.003 0 0 1 4-4h12a4.003 4.003 0 0 1 4 4v16a4.003 4.003 0 0 1 4 4v1a.997.997 0 0 0 1 1 .997.997 0 0 0 1-1v-9h-1a.997.997 0 0 1-1-1V8.75a.997.997 0 0 1 1-1h2.99c-.022-.952-.106-1.788-.402-2.444a1.944 1.944 0 0 0-.788-.916C28.432 4.17 27.872 4 27 4a.997.997 0 0 1-1-1 .997.997 0 0 1 1-1c1.128-.003 2.069.221 2.824.672.766.456 1.268 1.102 1.588 1.814.59 1.31.588 2.93.588 4.162v6.35c0 .132-.025.262-.076.383s-.124.232-.217.325a.991.991 0 0 1-.708.293h-1v9a3.004 3.004 0 0 1-3 3 2.998 2.998 0 0 1-3-3v-1a2 2 0 0 0-2-2v8h1a.997.997 0 0 1 1 1 .997.997 0 0 1-1 1h-22a.997.997 0 0 1-1-1 .997.997 0 0 1 1-1h1v-26zm18 0a2 2 0 0 0-2-2H6a2 2 0 0 0-2 2v26h16V4z" />
    </svg>
     <svg id="icon-ac" width="32" height="32" x="0" y="48" viewBox="0 0 32 32">
        <path
            d="M25 4a5 5 0 0 0-5 5 .997.997 0 0 1-1 1 .997.997 0 0 1-1-1 6.994 6.994 0 0 1 4.322-6.467 6.998 6.998 0 0 1 9.544 5.102 7.006 7.006 0 0 1-2.976 7.186 6.994 6.994 0 0 1-3.889 1.18h-24a.997.997 0 0 1-1-1 .997.997 0 0 1 1-1h24a5 5 0 0 0 0-10zM11 6a2 2 0 0 0-2 2 .997.997 0 0 1-1 1 .997.997 0 0 1-1-1 4.004 4.004 0 0 1 2.469-3.695A4 4 0 1 1 11 12H1a.997.997 0 0 1-1-1 .997.997 0 0 1 1-1h10a2 2 0 0 0 0-4zM0 19a.997.997 0 0 1 1-1h20.084a5.998 5.998 0 0 1 4.242 10.243 5.996 5.996 0 0 1-6.539 1.301 5.999 5.999 0 0 1-3.704-5.543.997.997 0 0 1 1-1 .997.997 0 0 1 1 1 4.004 4.004 0 0 0 2.469 3.695 4 4 0 1 0 1.531-7.695H.999a.997.997 0 0 1-1-1z" />
    </svg>
    <svg id="icon-bathroom" width="32" height="32" x="528" y="0" viewBox="0 0 32 32">
        <path
            d="M8 29.5a1.495 1.495 0 0 1-.926 1.385 1.504 1.504 0 0 1-1.635-.325 1.497 1.497 0 0 1-.326-1.635 1.5 1.5 0 0 1 2.885.574zm2.5-5.5a1.495 1.495 0 0 0-1.385.926 1.496 1.496 0 0 0 .326 1.635c.21.21.477.353.768.41s.592.028.867-.085a1.496 1.496 0 0 0 .926-1.385 1.503 1.503 0 0 0-1.5-1.5zm-8 0a1.495 1.495 0 0 0-1.385.926 1.496 1.496 0 0 0 .326 1.635c.21.21.477.353.768.41s.593.028.867-.085a1.5 1.5 0 0 0-.574-2.885zm4-4a1.495 1.495 0 0 0-1.385.926 1.496 1.496 0 0 0 .326 1.635c.21.21.477.353.768.41s.593.028.867-.085a1.5 1.5 0 0 0-.574-2.885zM32 5a.997.997 0 0 1-1 1h-3.586l-3.481 3.482-2.707 15.849a1.995 1.995 0 0 1-1.363 1.573 2.002 2.002 0 0 1-2.023-.49L5.59 14.164a2.002 2.002 0 0 1 1.086-3.389l15.842-2.709 3.775-3.775a1.007 1.007 0 0 1 .708-.293h4a.997.997 0 0 1 1 1zm-10.224 5.224L7 12.75 19.25 25l2.526-14.776z" />
    </svg>

    <svg id="van" width="32" height="32" viewBox="0 0 32 32" fill="none" xmlns="http://www.w3.org/2000/svg">
        <path d="M12 2H2V30H12V2ZM30 2H20V12H30V2ZM30 20V30H20V20H30ZM0 2C0 1.46957 0.210714 0.960859 0.585786 0.585786C0.960859 0.210714 1.46957 0 2 0L12 0C12.5304 0 13.0391 0.210714 13.4142 0.585786C13.7893 0.960859 14 1.46957 14 2V30C14 30.5304 13.7893 31.0391 13.4142 31.4142C13.0391 31.7893 12.5304 32 12 32H2C1.46957 32 0.960859 31.7893 0.585786 31.4142C0.210714 31.0391 0 30.5304 0 30V2ZM18 2C18 1.46957 18.2107 0.960859 18.5858 0.585786C18.9609 0.210714 19.4696 0 20 0L30 0C30.5304 0 31.0391 0.210714 31.4142 0.585786C31.7893 0.960859 32 1.46957 32 2V12C32 12.5304 31.7893 13.0391 31.4142 13.4142C31.0391 13.7893 30.5304 14 30 14H20C19.4696 14 18.9609 13.7893 18.5858 13.4142C18.2107 13.0391 18 12.5304 18 12V2ZM20 18C19.4696 18 18.9609 18.2107 18.5858 18.5858C18.2107 18.9609 18 19.4696 18 20V30C18 30.5304 18.2107 31.0391 18.5858 31.4142C18.9609 31.7893 19.4696 32 20 32H30C30.5304 32 31.0391 31.7893 31.4142 31.4142C31.7893 31.0391 32 30.5304 32 30V20C32 19.4696 31.7893 18.9609 31.4142 18.5858C31.0391 18.2107 30.5304 18 30 18H20Z" fill="#101828" />
    </svg>

    <svg id="fully-integrated" width="28" height="28" viewBox="0 0 28 28" fill="none" xmlns="http://www.w3.org/2000/svg">
        <path d="M0 3C0 2.20435 0.316071 1.44129 0.87868 0.87868C1.44129 0.316071 2.20435 0 3 0H9C9.79565 0 10.5587 0.316071 11.1213 0.87868C11.6839 1.44129 12 2.20435 12 3V9C12 9.79565 11.6839 10.5587 11.1213 11.1213C10.5587 11.6839 9.79565 12 9 12H3C2.20435 12 1.44129 11.6839 0.87868 11.1213C0.316071 10.5587 0 9.79565 0 9V3ZM3 2C2.73478 2 2.48043 2.10536 2.29289 2.29289C2.10536 2.48043 2 2.73478 2 3V9C2 9.26522 2.10536 9.51957 2.29289 9.70711C2.48043 9.89464 2.73478 10 3 10H9C9.26522 10 9.51957 9.89464 9.70711 9.70711C9.89464 9.51957 10 9.26522 10 9V3C10 2.73478 9.89464 2.48043 9.70711 2.29289C9.51957 2.10536 9.26522 2 9 2H3ZM16 3C16 2.20435 16.3161 1.44129 16.8787 0.87868C17.4413 0.316071 18.2044 0 19 0H25C25.7956 0 26.5587 0.316071 27.1213 0.87868C27.6839 1.44129 28 2.20435 28 3V9C28 9.79565 27.6839 10.5587 27.1213 11.1213C26.5587 11.6839 25.7956 12 25 12H19C18.2044 12 17.4413 11.6839 16.8787 11.1213C16.3161 10.5587 16 9.79565 16 9V3ZM19 2C18.7348 2 18.4804 2.10536 18.2929 2.29289C18.1054 2.48043 18 2.73478 18 3V9C18 9.26522 18.1054 9.51957 18.2929 9.70711C18.4804 9.89464 18.7348 10 19 10H25C25.2652 10 25.5196 9.89464 25.7071 9.70711C25.8946 9.51957 26 9.26522 26 9V3C26 2.73478 25.8946 2.48043 25.7071 2.29289C25.5196 2.10536 25.2652 2 25 2H19ZM0 19C0 18.2044 0.316071 17.4413 0.87868 16.8787C1.44129 16.3161 2.20435 16 3 16H9C9.79565 16 10.5587 16.3161 11.1213 16.8787C11.6839 17.4413 12 18.2044 12 19V25C12 25.7956 11.6839 26.5587 11.1213 27.1213C10.5587 27.6839 9.79565 28 9 28H3C2.20435 28 1.44129 27.6839 0.87868 27.1213C0.316071 26.5587 0 25.7956 0 25V19ZM3 18C2.73478 18 2.48043 18.1054 2.29289 18.2929C2.10536 18.4804 2 18.7348 2 19V25C2 25.2652 2.10536 25.5196 2.29289 25.7071C2.48043 25.8946 2.73478 26 3 26H9C9.26522 26 9.51957 25.8946 9.70711 25.7071C9.89464 25.5196 10 25.2652 10 25V19C10 18.7348 9.89464 18.4804 9.70711 18.2929C9.51957 18.1054 9.26522 18 9 18H3ZM16 19C16 18.2044 16.3161 17.4413 16.8787 16.8787C17.4413 16.3161 18.2044 16 19 16H25C25.7956 16 26.5587 16.3161 27.1213 16.8787C27.6839 17.4413 28 18.2044 28 19V25C28 25.7956 27.6839 26.5587 27.1213 27.1213C26.5587 27.6839 25.7956 28 25 28H19C18.2044 28 17.4413 27.6839 16.8787 27.1213C16.3161 26.5587 16 25.7956 16 25V19ZM19 18C18.7348 18 18.4804 18.1054 18.2929 18.2929C18.1054 18.4804 18 18.7348 18 19V25C18 25.2652 18.1054 25.5196 18.2929 25.7071C18.4804 25.8946 18.7348 26 19 26H25C25.2652 26 25.5196 25.8946 25.7071 25.7071C25.8946 25.5196 26 25.2652 26 25V19C26 18.7348 25.8946 18.4804 25.7071 18.2929C25.5196 18.1054 25.2652 18 25 18H19Z" fill="#101828" />
    </svg>

    <svg id="alcove" width="28" height="28" viewBox="0 0 28 28" fill="none" xmlns="http://www.w3.org/2000/svg">
        <path d="M6 2V6H2V2H6ZM8 26V22C8 21.4696 7.78929 20.9609 7.41421 20.5858C7.03914 20.2107 6.53043 20 6 20H2C1.46957 20 0.960859 20.2107 0.585786 20.5858C0.210714 20.9609 0 21.4696 0 22V26C0 26.5304 0.210714 27.0391 0.585786 27.4142C0.960859 27.7893 1.46957 28 2 28H6C6.53043 28 7.03914 27.7893 7.41421 27.4142C7.78929 27.0391 8 26.5304 8 26ZM8 16V12C8 11.4696 7.78929 10.9609 7.41421 10.5858C7.03914 10.2107 6.53043 10 6 10H2C1.46957 10 0.960859 10.2107 0.585786 10.5858C0.210714 10.9609 0 11.4696 0 12V16C0 16.5304 0.210714 17.0391 0.585786 17.4142C0.960859 17.7893 1.46957 18 2 18H6C6.53043 18 7.03914 17.7893 7.41421 17.4142C7.78929 17.0391 8 16.5304 8 16ZM8 6V2C8 1.46957 7.78929 0.960859 7.41421 0.585786C7.03914 0.210714 6.53043 0 6 0H2C1.46957 0 0.960859 0.210714 0.585786 0.585786C0.210714 0.960859 0 1.46957 0 2V6C0 6.53043 0.210714 7.03914 0.585786 7.41421C0.960859 7.78929 1.46957 8 2 8H6C6.53043 8 7.03914 7.78929 7.41421 7.41421C7.78929 7.03914 8 6.53043 8 6ZM18 26V22C18 21.4696 17.7893 20.9609 17.4142 20.5858C17.0391 20.2107 16.5304 20 16 20H12C11.4696 20 10.9609 20.2107 10.5858 20.5858C10.2107 20.9609 10 21.4696 10 22V26C10 26.5304 10.2107 27.0391 10.5858 27.4142C10.9609 27.7893 11.4696 28 12 28H16C16.5304 28 17.0391 27.7893 17.4142 27.4142C17.7893 27.0391 18 26.5304 18 26ZM18 16V12C18 11.4696 17.7893 10.9609 17.4142 10.5858C17.0391 10.2107 16.5304 10 16 10H12C11.4696 10 10.9609 10.2107 10.5858 10.5858C10.2107 10.9609 10 11.4696 10 12V16C10 16.5304 10.2107 17.0391 10.5858 17.4142C10.9609 17.7893 11.4696 18 12 18H16C16.5304 18 17.0391 17.7893 17.4142 17.4142C17.7893 17.0391 18 16.5304 18 16ZM18 6V2C18 1.46957 17.7893 0.960859 17.4142 0.585786C17.0391 0.210714 16.5304 0 16 0H12C11.4696 0 10.9609 0.210714 10.5858 0.585786C10.2107 0.960859 10 1.46957 10 2V6C10 6.53043 10.2107 7.03914 10.5858 7.41421C10.9609 7.78929 11.4696 8 12 8H16C16.5304 8 17.0391 7.78929 17.4142 7.41421C17.7893 7.03914 18 6.53043 18 6ZM16 2V6H12V2H16ZM26 2V6H22V2H26ZM6 12V16H2V12H6ZM16 12V16H12V12H16ZM26 12H22V16H26V12ZM6 22V26H2V22H6ZM16 22V26H12V22H16ZM26 22V26H22V22H26ZM22 0C21.4696 0 20.9609 0.210714 20.5858 0.585786C20.2107 0.960859 20 1.46957 20 2V6C20 6.53043 20.2107 7.03914 20.5858 7.41421C20.9609 7.78929 21.4696 8 22 8H26C26.5304 8 27.0391 7.78929 27.4142 7.41421C27.7893 7.03914 28 6.53043 28 6V2C28 1.46957 27.7893 0.960859 27.4142 0.585786C27.0391 0.210714 26.5304 0 26 0H22ZM20 12C20 11.4696 20.2107 10.9609 20.5858 10.5858C20.9609 10.2107 21.4696 10 22 10H26C26.5304 10 27.0391 10.2107 27.4142 10.5858C27.7893 10.9609 28 11.4696 28 12V16C28 16.5304 27.7893 17.0391 27.4142 17.4142C27.0391 17.7893 26.5304 18 26 18H22C21.4696 18 20.9609 17.7893 20.5858 17.4142C20.2107 17.0391 20 16.5304 20 16V12ZM22 20C21.4696 20 20.9609 20.2107 20.5858 20.5858C20.2107 20.9609 20 21.4696 20 22V26C20 26.5304 20.2107 27.0391 20.5858 27.4142C20.9609 27.7893 21.4696 28 22 28H26C26.5304 28 27.0391 27.7893 27.4142 27.4142C27.7893 27.0391 28 26.5304 28 26V22C28 21.4696 27.7893 20.9609 27.4142 20.5858C27.0391 20.2107 26.5304 20 26 20H22Z" fill="#101828" />
    </svg>
    
    <svg id="icon-hugeicons_gas_stove" width="32" height="32" x="288" y="0" viewBox="0 0 32 32">
        <path fill="none" stroke="#000" stroke-linecap="round" stroke-linejoin="round"
            stroke-width="2.4"
            d="M8 25.333h5.333M24 25.345v-.012M2.667 8c0-4.413.92-5.333 5.333-5.333h16c4.413 0 5.333.92 5.333 5.333v16c0 4.413-.92 5.333-5.333 5.333H8c-4.413 0-5.333-.92-5.333-5.333V8z" />
        <path fill="none" stroke="#000" stroke-linecap="round" stroke-linejoin="round"
            stroke-width="2.4"
            d="M16 18.667A5.333 5.333 0 1 0 16 8a5.333 5.333 0 0 0 0 10.667zM20.667 13.333h2M16 18v2m-4.667-6.667h-2M16 8.667v-2" />
    </svg>
    <svg id="icon-ion_water" width="32" height="32" x="336" y="0" viewBox="0 0 32 32">
        <path fill="none" stroke="#000" stroke-miterlimit="10" stroke-width="2"
            d="M25 20c0 5.523-3.477 9-9 9s-9-3.477-9-9c0-5.927 6.452-13.928 8.431-16.242a.763.763 0 0 1 .57-.263.744.744 0 0 1 .57.263c1.978 2.314 8.43 10.316 8.43 16.242z" />
        <path fill="none" stroke="#000" stroke-linecap="round" stroke-linejoin="round"
            stroke-width="2" d="M21.5 20.5A4.499 4.499 0 0 1 17 25" />
    </svg>
    <svg id="icon-like" width="32" height="32" x="384" y="0" viewBox="0 0 32 32">
        <path
            d="m16 13.139-1.788-3.578c-.444-.886-1.214-2.16-2.304-3.19C10.836 5.357 9.552 4.667 8 4.667c-3.352 0-6 2.652-6 5.84 0 2.422 1.108 4.132 3.736 6.74.674.668 1.442 1.39 2.292 2.186C10.244 21.513 13 24.101 16 27.561c3-3.46 5.756-6.048 7.972-8.128.85-.796 1.62-1.52 2.292-2.186C28.892 14.639 30 12.929 30 10.507c0-3.188-2.648-5.84-6-5.84-1.554 0-2.836.69-3.908 1.704-1.09 1.03-1.86 2.304-2.304 3.19L16 13.139zm.784 16.584a1.022 1.022 0 0 1-1.216.269 1.04 1.04 0 0 1-.352-.269c-3.202-3.804-6.1-6.524-8.486-8.762C2.6 17.083 0 14.645 0 10.507c0-4.33 3.58-7.84 8-7.84 3.2 0 5.438 2.1 6.808 4.016.52.73.916 1.432 1.192 1.984.346-.691.745-1.354 1.192-1.984C18.562 4.765 20.8 2.667 24 2.667c4.42 0 8 3.51 8 7.84 0 4.138-2.6 6.576-6.73 10.454-2.386 2.24-5.284 4.962-8.486 8.762z" />
    </svg>
    <svg id="icon-lucide_microwave" width="32" height="32" x="432" y="0" viewBox="0 0 32 32">
        <path fill="none" stroke="#000" stroke-linecap="round" stroke-linejoin="round"
            stroke-width="2"
            d="M26.667 5.333H5.334A2.667 2.667 0 0 0 2.667 8v14.667a2.667 2.667 0 0 0 2.667 2.667h21.333a2.667 2.667 0 0 0 2.667-2.667V8a2.667 2.667 0 0 0-2.667-2.667z" />
        <path fill="none" stroke="#000" stroke-linecap="round" stroke-linejoin="round"
            stroke-width="2"
            d="M17.333 10.667h-8C8.597 10.667 8 11.264 8 12v6.667C8 19.403 8.597 20 9.333 20h8c.736 0 1.333-.597 1.333-1.333V12c0-.736-.597-1.333-1.333-1.333zM24 10.667V20M8 25.333V28m16-2.667V28" />
    </svg>
    <svg id="icon-map" width="32" height="32" x="480" y="0" viewBox="0 0 32 32">
        <path
            d="M31.634.226A.991.991 0 0 1 32 1v28a.999.999 0 0 1-.804.98l-10 2a.995.995 0 0 1-.392 0L11 30.02l-9.804 1.96a.995.995 0 0 1-1.1-.552A1.003 1.003 0 0 1 0 31V3a.999.999 0 0 1 .804-.98l10-2a.995.995 0 0 1 .392 0L21 1.98 30.804.02a.996.996 0 0 1 .83.206zM20 3.82l-8-1.6v25.96l8 1.6V3.82zm2 25.96 8-1.6V2.22l-8 1.6v25.96zm-12-1.6V2.22l-8 1.6v25.96l8-1.6z" />
    </svg>
    
    <svg id="icon-solar_fridge" width="32" height="32" x="576" y="0" viewBox="0 0 32 32">
        <path
            d="M23.667 9.333a.997.997 0 0 0-1-1 .997.997 0 0 0-1 1V12a.997.997 0 0 0 1 1 .997.997 0 0 0 1-1V9.333zm0 9.334a.997.997 0 0 0-1-1 .997.997 0 0 0-1 1v2.667a.997.997 0 0 0 1 1 .997.997 0 0 0 1-1v-2.667z" />
        <path
            d="M16.075 1.667h-.149c-2.451 0-4.392 0-5.911.204-1.563.211-2.828.653-3.827 1.651-.997.999-1.44 2.264-1.651 3.827-.204 1.52-.204 3.46-.204 5.911v4.149c0 2.451 0 4.392.204 5.911.211 1.563.653 2.828 1.651 3.827.613.612 1.325 1.015 2.145 1.284v.904a1 1 0 0 0 1 1h1.333a.997.997 0 0 0 1-1v-.395c1.209.061 2.62.061 4.259.061h.149c1.64 0 3.049 0 4.259-.061v.395a1 1 0 0 0 1 1h1.333a.997.997 0 0 0 1-1v-.904c.82-.269 1.533-.672 2.145-1.284.997-.999 1.44-2.264 1.651-3.827.204-1.52.204-3.46.204-5.911v-4.148c0-2.451 0-4.392-.204-5.911-.211-1.563-.653-2.828-1.651-3.827-.999-.997-2.264-1.44-3.827-1.651-1.52-.204-3.46-.204-5.911-.204zM7.603 4.936c.564-.564 1.337-.903 2.679-1.083 1.371-.184 3.176-.187 5.719-.187s4.349.003 5.72.187c1.34.18 2.113.519 2.677 1.083s.903 1.337 1.083 2.679c.184 1.371.187 3.176.187 5.719v1H6.335v-1c0-2.543.003-4.348.187-5.72.18-1.34.519-2.113 1.083-2.677zm-1.27 11.397h19.333v1c0 2.543-.003 4.349-.187 5.72-.18 1.34-.519 2.113-1.083 2.677s-1.337.903-2.679 1.083c-1.371.184-3.176.187-5.719.187s-4.348-.003-5.72-.187c-1.34-.18-2.113-.519-2.677-1.083s-.903-1.337-1.083-2.679c-.184-1.369-.187-3.176-.187-5.719v-1z" />
    </svg>
    <svg id="icon-star" width="32" height="32" x="624" y="0" viewBox="0 0 32 32">
        <path
            d="M15.116 1.676a1 1 0 0 1 1.769 0l3.777 7.158c.145.274.408.466.714.519l7.975 1.38a1 1 0 0 1 .547 1.682l-5.641 5.804a1 1 0 0 0-.273.839l1.152 8.01a1 1 0 0 1-1.431 1.04l-7.263-3.571a.998.998 0 0 0-.882 0l-7.262 3.571a1 1 0 0 1-1.431-1.04l1.152-8.01a1 1 0 0 0-.273-.839l-5.64-5.804a1 1 0 0 1 .547-1.682l7.974-1.38a.998.998 0 0 0 .714-.519l3.776-7.158z" />
    </svg>
    <svg id="icon-tv" width="32" height="32" x="672" y="0" viewBox="0 0 32 32">
        <path
            d="M0 8s0-4 4-4h24s4 0 4 4v12s0 4-4 4h-8c0 1.333.167 2.333.5 3H22a.997.997 0 0 1 1 1 .997.997 0 0 1-1 1H10a.997.997 0 0 1-1-1 .997.997 0 0 1 1-1h1.5c.333-.667.5-1.667.5-3H4s-4 0-4-4V8zm2.796-1.71c-.22.153-.395.361-.508.604A3.013 3.013 0 0 0 2 8.02V20c0 .65.156 1.004.29 1.204.14.208.341.377.604.508.338.162.703.259 1.076.286l.05.002H28c.65 0 1.004-.156 1.204-.29.22-.153.395-.361.508-.604.162-.338.259-.703.286-1.076l.002-.05V8c0-.65-.156-1.004-.29-1.204a1.511 1.511 0 0 0-.604-.508A3.018 3.018 0 0 0 27.98 6H4c-.65 0-1.004.156-1.204.29z" />
    </svg>
    <svg id="icon-ui_radios" width="32" height="32" x="720" y="0" viewBox="0 0 32 32">
        <path
            d="M14 5a.997.997 0 0 1 1-1h14a.997.997 0 0 1 1 1v2a.997.997 0 0 1-1 1H15a.997.997 0 0 1-1-1V5zM0 24a5.996 5.996 0 0 1 6-6 6.002 6.002 0 0 1 4.243 10.243A6 6 0 0 1 0 24zm14-3a.997.997 0 0 1 1-1h14a.997.997 0 0 1 1 1v2a.997.997 0 0 1-1 1H15a.997.997 0 0 1-1-1v-2zm0-10a.997.997 0 0 1 1-1h10a.997.997 0 0 1 1 1 .997.997 0 0 1-1 1H15a.997.997 0 0 1-1-1zm0 16a.997.997 0 0 1 1-1h10a.997.997 0 0 1 1 1 .997.997 0 0 1-1 1H15a.997.997 0 0 1-1-1zM6 2a5.99 5.99 0 0 0-4.243 1.758A6.01 6.01 0 0 0-.001 8.001a5.99 5.99 0 0 0 1.758 4.243A6.01 6.01 0 0 0 6 14.002a5.996 5.996 0 0 0 6-6 5.996 5.996 0 0 0-6-6zm0 9a3.004 3.004 0 0 1-3-3 3.004 3.004 0 0 1 3-3 3.004 3.004 0 0 1 3 3 3.004 3.004 0 0 1-3 3z" />
    </svg>
   
</svg>